<?xml version="1.0" encoding="UTF-8"?><svg xmlns="http://www.w3.org/2000/svg" viewBox="0 0 180 180"><path d="M71.78 98.52c12.55-7.15 22.08-17.8 30.64-29.26 2.13-2.85 3.91-5.98 6.44-8.51 1.66-1.66 5.06-3.39 6.42-.37 1.06 2.36.3 5.79-.3 8.19-.83 3.31-2.37 6.34-4.22 9.19-3.9 6.05-8.74 11.85-14.65 16.02-2.09 1.48-.9 5.03 1.81 4.3 2.4-.65 6.57-1.08 8.42.8 1.52 1.55 1.93 5.73.52 7.3-2.01 2.25 1.17 5.49 3.33 3.33 1.03-1.03 2.16-1.34 3.57-1.26 1.12.06 2.68.7 3.6 1.5 1.05.91 1.73 2.06 1.75 3.35.02 1.62-.98 3.18-2.56 3.62l1.26 4.56c2.69-.84 5.18 1.06 6.27 3.45 1.24 2.74 1.17 6.11.49 8.99-.65 2.74-1.9 5.38-3.85 7.44-1.71 1.8-4.29 3.58-6.9 3.39-1.46-.11-1.75-.9-1.75-2.28 0-2.15.45-4.33 1.32-6.3.53-1.2.35-2.61-.87-3.32-1.13-.66-2.66-.26-3.32.87-3.72 6.37-9.15 11.42-15.59 14.99-3.25 1.8-6.71 3.13-10.33 3.97-2.96.69-5.94 1.23-8.86 2.11-3.3 1-6.98 2.18-9.52 4.62-2.2 2.11 1.15 5.46 3.35 3.35.31-.3.51-.45 1.09-.79s1.19-.65 1.81-.91c1.53-.65 3.16-1.11 4.76-1.53 3.01-.79 6.08-1.28 9.1-2.01 7.56-1.83 14.6-5.72 20.23-11.08 3.16-3.01 5.94-6.5 8.14-10.27-1.4-.82-2.79-1.63-4.19-2.45-1.84 4.15-3.87 11.5.65 14.67 3.52 2.46 8.56.88 11.72-1.42 6.82-4.95 10.31-15.24 7.14-23.22-1.89-4.77-6.88-8.5-12.17-6.82-2.89.92-1.69 5.39 1.26 4.56 3.08-.87 5.37-3.57 5.87-6.72.45-2.88-.55-5.7-2.57-7.78-3.75-3.85-10.33-4.57-14.25-.6l3.33 3.33c3.12-3.55 2.79-9.81-.08-13.42-2.99-3.77-9.23-3.7-13.45-2.55.6 1.43 1.21 2.87 1.81 4.3 6.04-4.27 10.82-9.81 15.07-15.83 2.19-3.11 4.07-6.45 5.31-10.06 1.09-3.19 1.83-6.99 1.45-10.38-.44-3.9-2.98-7.24-7.11-7.53-4.06-.28-7.27 2.68-9.61 5.63s-4.54 6.44-6.91 9.59c-2.31 3.06-4.69 6.08-7.18 8.99-5.63 6.59-12.01 12.8-19.41 17.37-1.83 1.13-.19 3.96 1.69 2.89Z"/><path d="M46.21 111.52c3.5-2.33 6.71-4.9 9.63-7.94 3.05-3.17 5.83-6.59 8.52-10.06 1.25-1.61 2.48-3.22 3.74-4.82s2.65-3.52 4.57-4.37c1.44-.63 3-.79 4.21.33 1.24 1.16 1.36 2.93 1.58 4.5.32 2.32 4.15 2.21 4.58 0 .69-3.57-1.21-7.72-4.47-9.42-3.82-2-8.13-.22-10.93 2.66-2.58 2.65-4.5 6.01-6.73 8.95s-4.69 6.04-7.22 8.9c-2.72 3.07-5.55 6.41-8.96 8.73-1.54 1.05-.1 3.57 1.47 2.52Zm70.12 20.58c-.36 0-.72-.01-1.08-.02s-.73.02-1.08-.01l.45.06-.18-.03.42.18c-.37-.17-.65-.29-1.07-.29-.12 0-.25.01-.38.02-.25.01-.5.03-.75.04s-.5.03-.75.06-.55.04-.78.1c-.49.14-.9.47-1.15.91-.41.72-.27 1.58.28 2.18.81.89 2.05.51 3.08.37l-.49.07c.66-.09 1.45-.07 2.01-.45l-.42.18c.46-.17.98-.19 1.47-.26l-.42.06c.28-.04.57-.07.85-.11.42-.05.77-.14 1.08-.45.26-.26.46-.7.45-1.08-.04-.84-.67-1.5-1.52-1.52Z"/><path d="M48 110.34c-7.74-3.26-16.8-2.2-24.12 1.67-3.59 1.9-7.06 4.57-9.11 8.14-1.88 3.27-2.4 7.07-1.58 10.74 1.8 8.09 9.55 13.65 17.32 15.26 8.27 1.71 18.21-.32 24.7-5.91 3.37-2.9 5.68-7.18 5.65-11.69-.04-4.72-2.38-9.51-6.53-11.91-1.74-1.01-3.88 1.52-2.22 2.88 2.53 2.08 4.44 4.98 4.65 8.32.2 3.27-1.16 6.27-3.51 8.51-2.26 2.16-5.22 3.6-8.17 4.55-3.69 1.19-7.6 1.87-11.48 1.72-6.75-.26-13.44-4.57-15.63-11.12-.85-2.56-.9-5.36.17-7.88 1.27-3.01 3.91-5.2 6.65-6.85 6.42-3.86 15.12-5.82 22.37-3.33.83.28 1.75-.33 1.98-1.12.27-.93-.33-1.64-1.12-1.98Z"/><path d="M35.44 144.69c6.87 5.52 12.41 13.99 11.77 23.12-.04.57-.07 1.21.3 1.65.4.48 1.09.54 1.72.54 5.45.05 8.76-2.28 13.56-4.88.67-.36 1.34-.76 1.8-1.37.45-.6.64-1.35.77-2.09.75-4.28-.24-8.72-2.06-12.67s-4.42-7.47-7.05-10.93c-1.69 2.39-4.24 4.07-6.94 5.18-2.71 1.11-5.59 1.71-8.46 2.3"/><path d="M34.37 145.75c3.58 3.56 6.8 7.29 8.8 12 .93 2.19 1.64 4.54 1.83 6.91.19 2.39-.74 5.67 1.88 7.04 2.19 1.15 5.62.41 7.86-.26 2.45-.73 4.71-1.95 6.93-3.18 2.4-1.33 4.86-2.41 5.65-5.28.76-2.75.55-5.82.02-8.58-1.28-6.6-5.3-12.17-9.28-17.41-1.01-1.33-2.64-1.36-3.65 0-3.22 4.38-9.16 5.47-14.14 6.5-2.68.55-1.54 4.65 1.13 4.1 6.3-1.3 12.67-3.02 16.66-8.46h-3.65c3.08 4.04 6.26 8.28 7.88 13.16.82 2.46 1.25 5 1.06 7.6-.06.79-.08 1.94-.59 2.59-.63.81-2.11 1.29-2.98 1.77-1.84 1.02-3.69 2.1-5.69 2.78-.97.32-1.97.58-2.98.69-.49.06-1.48-.1-1.9.09-.04.02-.34-.04-.36-.02.07-.11.49 1.45.53.2.17-4.68-.75-9.14-2.96-13.3-2.34-4.43-6.05-8.54-10.24-11.3-1.45-.95-3.03 1.18-1.83 2.37Zm-4.51-27.81c.73 1.72 1.71 3.33 2.61 4.97.46.85.92 1.7 1.37 2.55.21.39.41.77.62 1.16s.55.83.61 1.23c.19 1.28 1.73 1.51 2.67 1.09 1.4-.63 2.81-1.24 4.2-1.9.67-.32 1.34-.64 2.02-.96.32-.15.64-.29.95-.45.6-.32.89-.71 1.11-1.34.31-.86-.36-1.67-1.11-1.96-.92-.35-1.81.22-2.65.58-.72.32-1.45.64-2.17.95-1.41.62-2.79 1.28-4.18 1.93l2.21.28c-.29-.23-.48-.73-.68-1.05-.25-.41-.5-.82-.75-1.24-.5-.82-1-1.65-1.5-2.47-.96-1.6-1.96-3.19-2.86-4.82-.37-.68-1.3-.9-1.96-.51-.74.43-.82 1.24-.51 1.96m-5.66 13.88.15.02c.19 0 .36-.03.52-.12.17-.05.31-.15.44-.28.13-.12.23-.27.28-.44.09-.16.12-.34.12-.52l-.05-.36c-.06-.23-.18-.43-.35-.6l-.28-.21c-.21-.12-.44-.18-.69-.19l-.15.02c-.19 0-.36.03-.52.12-.17.05-.31.15-.43.28-.13.12-.22.27-.28.43-.08.16-.12.33-.12.52l.05.36c.06.23.18.43.35.59l.27.21c.21.12.44.18.68.18Zm19.63 4.37c1.76 0 1.76-2.73 0-2.73s-1.76 2.73 0 2.73m-28.32-4.11c-1.28-.01-2.73.06-3.8.84-1.5 1.09-1.98 2.79-1.59 4.56.34 1.53 1.27 2.93 2.24 4.13 1.03 1.27 2.41 2.26 4.09 2.36 1.09.06 2.04-.37 2.86-1.04.25-.2.48-.43.72-.65.04-.04.09-.08.14-.12s.09-.08.14-.12c.07-.06.06-.05-.04.03-.18.06-.05.04.02 0 .11-.06.21-.12.32-.17.84-.38 1.11-1.66.63-2.41-.57-.88-1.5-1.02-2.41-.63-.66.28-1.17.81-1.69 1.29-.06.06-.12.11-.18.16-.15.12-.12.11.07-.05-.06.05-.13.09-.2.13-.17.09-.14.08.08-.01-.08.03-.17.06-.26.08-.2.04-.18.04.07 0h-.27l.2.03c-.12 0-.44-.07-.53-.14.21.09.22.1.05 0-.08-.04-.16-.09-.24-.14s-.15-.1-.23-.15c.17.14.19.15.03.02-.1-.09-.2-.18-.3-.28a8 8 0 0 1-.74-.84c.25.33-.12-.17-.16-.23-.1-.14-.19-.28-.28-.43-.19-.31-.37-.63-.53-.95-.04-.08-.08-.16-.11-.24.09.21.09.22.02.04-.05-.15-.11-.3-.15-.46-.04-.14-.1-.31-.1-.46 0 .48.03-.11.02-.2.02-.2.01-.17-.01.07.02-.08.04-.17.07-.25-.1.21-.1.22-.01.05.03-.05.06-.1.09-.14.07-.11.04-.06-.1.13.05-.05.1-.11.15-.16q.21-.18-.09.06l.18-.12c.13-.08.26-.13.39-.2.29-.15-.34.12.07-.03.57-.2 1.16-.3 1.75-.39.74-.11 1.17-1 1.09-1.66a1.51 1.51 0 0 0-1.49-1.31Zm96.37-121.44c-4.36-3.75-11.25-2.45-15.35 1.09-4.79 4.13-5.74 11.33-2.86 16.82 1.54 2.92 4.25 5.15 7.06 6.79 2.66 1.55 5.72 2.56 8.83 2.45 2.68-.1 5.48-.79 7.61-2.48 1.94-1.53 2.88-3.86 3.34-6.23 1.05-5.36.06-12.17-4.51-15.73-.71-.55-1.64-.68-2.33 0-.58.57-.7 1.78 0 2.33 3.09 2.44 3.92 6.68 3.7 10.43-.1 1.67-.4 3.62-1.32 5.06-.96 1.52-2.81 2.17-4.5 2.47-4.69.81-9.36-1.35-12.63-4.66-3.32-3.35-3.84-8.61-1.25-12.55 1.3-1.98 3.22-3.26 5.48-3.88 1.87-.51 4.91-1.11 6.56.25 1.5 1.24 3.67-.87 2.17-2.17Z"/><path d="M119.47 21.81c14.08 4.49 27.36 11.33 41.31 16.24 1.69.6 3.41 1.19 4.88 2.22 2.81 1.97 3.91 5.57.66 7.78-1.44.98-3.29 1.21-5.02.98-5.75-.74-11.62-4.25-16.86-6.56-8.15-3.59-16.16-7.54-24.44-10.84-.36-.14.3-1.11.91-1.86 1.13-1.39-1.17 2.07-.91 1.86.54-.45.74-1.18.91-1.86.32-1.26.65-2.55.52-3.84-.08-.74-.3-1.47-.37-2.21"/><path d="M119.06 23.27c13.67 4.87 26.64 11.52 40.28 16.44 2.24.81 5.67 1.59 6.7 4.06s-2.5 3.39-4.35 3.22c-3.18-.29-6.32-1.65-9.19-2.98-3.07-1.42-6.11-2.91-9.2-4.3-7.57-3.4-15.05-7-22.75-10.08l.92.53-.09-.09.61 1.47c-.17.52-.15.58.07.16.08-.13.17-.25.26-.37.12-.22.62-.54-.05-.09-.84-.11-1.68-.22-2.52-.32h.01c-.18-.66-.36-1.34-.53-2.01.13-.51.16-.34-.05 0-.16.26-.31.53-.47.8-.23.39-.63.93-.69 1.39-.24 1.77 1.29 3.14 3 2.3 1.39-.68 1.75-2.71 2.03-4.06.2-.95.39-1.95.37-2.93-.02-.92-.28-1.79-.4-2.7-.13-1.05-.8-1.95-1.95-1.95-.95 0-2.08.9-1.95 1.95.15 1.21.5 2.4.34 3.63-.08.64-.28 1.28-.46 1.9-.06.23-.13.46-.21.68-.17.23-.11.22.17-.05 1 .77 2 1.54 3 2.3-.09.46-.22.43.04.05.17-.25.33-.51.49-.77.28-.45.62-.95.75-1.46.18-.68.02-1.54-.53-2.02h-.01c-.66-.58-1.73-.87-2.52-.33-1.1.75-2.31 2.38-2.34 3.73-.05 2.24 2.88 2.75 4.49 3.42 4.02 1.68 7.98 3.5 11.94 5.32s7.65 3.39 11.42 5.18c3.66 1.73 7.29 3.63 11.16 4.84 3.72 1.17 8.02 1.81 11.27-.85 2.68-2.2 2.88-5.86.9-8.59-2.31-3.18-6.39-4.15-9.9-5.43-3.99-1.45-7.95-3-11.88-4.61-9.05-3.69-17.94-7.63-27.35-10.32-1.9-.54-2.62 2.28-.81 2.92Zm-22.6-9.15c-3.39-1.5-6.88-2.78-10.44-3.83-.64-.19-1.3-.37-1.96-.27-1.44.22-2.34 1.67-2.86 3.04-.23.6-.43 1.23-.43 1.87 0 1.38.93 2.59 1.97 3.5 2.9 2.54 6.8 3.57 10.54 4.51-.36-2.94.89-6.02 3.19-7.88"/><path d="M97.19 12.88c-2.52-1.45-5.21-2.55-7.95-3.52-1.32-.47-2.68-1.01-4.08-1.2-1.48-.2-2.86.25-3.94 1.28-1.76 1.68-2.93 4.83-2.09 7.17.89 2.47 3.23 4.22 5.49 5.39 2.55 1.32 5.36 2.14 8.16 2.73 1.04.22 2.5-.51 2.34-1.78-.32-2.54.62-4.95 2.6-6.62.74-.62.64-1.88 0-2.52-.74-.74-1.77-.61-2.52 0-2.66 2.18-4.09 5.72-3.77 9.14.78-.59 1.56-1.19 2.34-1.78-2.39-.71-4.87-1.26-7.1-2.41-1.66-.85-4.46-2.45-3.83-4.53.24-.78.73-1.89 1.3-2.22.14-.08-.1-.06.21-.09s.6.07.89.14c.72.19 1.44.42 2.15.63 2.92.86 5.79 1.91 8.69 2.83 1.57.5 2.52-1.83 1.11-2.64m34.09 47.81c14.08 4.49 15.55 6.7 29.49 11.61 1.69.6 3.41 1.19 4.88 2.22 2.81 1.97 3.91 5.57.66 7.78-1.44.98-3.29 1.21-5.02.98-5.75-.74-11.62-4.25-16.86-6.56-8.15-3.59-5.18-1.4-13.46-4.69-.36-.14 1.14-2.63 1.75-3.38 1.13-1.39-1.17 2.07-.91 1.86.54-.45.74-1.18.91-1.86.32-1.26.65-2.55.52-3.84-.08-.74-.3-1.47-.37-2.21"/><path d="M130.88 62.15c9.96 3.63 19.41 8.45 29.36 12.1 2.04.75 5.57 1.75 5.98 4.33.38 2.41-3.13 2.82-4.77 2.63-3.25-.38-6.4-1.77-9.34-3.15-2.91-1.36-5.77-2.8-8.73-4.04-3.86-1.62-7.95-2.46-11.85-4l.92.53-.04-.04.53.92v-.08c-.01.37-.01.74-.01 1.1.06-.38-.04-.05.11-.37.18-.37.39-.74.61-1.09.18-.3.38-.6.58-.89.14-.19.02.12.03-.05.01-.13.64-.49-.18.07-.84-.11-1.68-.22-2.52-.32h.01c-.18-.66-.36-1.34-.53-2.01.13-.51.16-.34-.05 0-.16.26-.32.53-.48.79-.24.4-.64.92-.72 1.39-.3 1.85 1.33 3.14 3.05 2.35 1.41-.65 1.78-2.75 2.04-4.08.19-.95.37-1.96.34-2.94-.02-.92-.29-1.79-.4-2.7-.13-1.05-.8-1.95-1.95-1.95-.96 0-2.08.9-1.95 1.95.15 1.21.51 2.4.33 3.62-.09.64-.3 1.28-.49 1.89-.06.23-.14.45-.22.68-.17.23-.11.21.19-.07 1.02.78 2.04 1.56 3.05 2.35-.07.45-.23.46.03.06.16-.26.32-.52.47-.78.28-.46.61-.94.75-1.47.18-.68.02-1.54-.53-2.02h-.01c-.66-.58-1.73-.87-2.52-.33-.95.65-1.59 1.76-2.15 2.74-.71 1.24-1.58 2.94-.37 4.18.6.62 1.61.84 2.41 1.14s1.56.58 2.35.84c.86.29 1.74.53 2.62.74 6.04 1.45 11.4 4.87 17.12 7.17 3.52 1.42 7.9 2.95 11.66 1.59 3.37-1.22 5.67-4.59 4.35-8.16-1.33-3.58-4.9-5.15-8.27-6.3-3.41-1.17-6.8-2.37-10.11-3.78-2.87-1.22-5.7-2.54-8.59-3.71-3.7-1.49-7.47-2.69-11.31-3.75-1.91-.53-2.61 2.26-.81 2.92ZM108.28 53c-3.39-1.5-18.7-7.41-22.26-8.45-.64-.19-1.3-.37-1.96-.27-1.44.22-2.34 1.67-2.86 3.04-.23.6-.43 1.23-.43 1.87 0 1.38.93 2.59 1.97 3.5 2.9 2.54 18.61 8.2 22.36 9.14-.36-2.94.89-6.02 3.19-7.88"/><path d="M109.01 51.76c-3.46-1.81-7.12-3.26-10.74-4.7-3.75-1.5-7.52-3.04-11.38-4.25-1.18-.37-2.43-.66-3.66-.31-1.58.45-2.73 1.79-3.42 3.22-.65 1.35-1.13 2.84-.87 4.35.28 1.6 1.31 3.02 2.53 4.05s2.74 1.77 4.21 2.45c2.11.99 4.26 1.88 6.43 2.73 4.07 1.61 8.25 3.2 12.5 4.28 1.04.26 2.43-.54 2.31-1.76-.27-2.59.64-4.92 2.63-6.62 1.75-1.49-.78-3.98-2.52-2.52-2.64 2.21-4.08 5.71-3.75 9.14.77-.59 1.54-1.17 2.31-1.76-3.24-.85-6.37-2.12-9.5-3.29-3.61-1.36-7.3-2.74-10.67-4.62-.48-.27-.97-.55-1.41-.89.48.37-.6-.6-.71-.74-.38-.47-.63-.97-.58-1.58.07-.76.73-2.43 1.54-2.72.61-.22 1.57.28 2.18.48 3.51 1.15 6.97 2.47 10.43 3.74 3.67 1.35 7.36 2.63 11.03 3.96 1.54.56 2.56-1.89 1.11-2.64m30.87 40.48c-4.36-3.75-11.25-2.45-15.35 1.09-4.79 4.13-5.74 11.33-2.86 16.82 1.54 2.92 4.25 5.15 7.06 6.79 2.66 1.55 5.72 2.56 8.83 2.45 2.68-.1 5.48-.79 7.61-2.48 1.94-1.53 2.88-3.86 3.34-6.23 1.05-5.36.06-12.17-4.51-15.73-.71-.55-1.64-.68-2.33 0-.58.57-.7 1.78 0 2.33 3.09 2.44 3.92 6.68 3.7 10.43-.1 1.67-.4 3.62-1.32 5.06-.96 1.52-2.81 2.17-4.5 2.47-4.69.81-9.36-1.35-12.63-4.66s-3.84-8.61-1.25-12.55c1.3-1.98 3.22-3.26 5.48-3.88 1.87-.51 4.91-1.11 6.56.25 1.5 1.24 3.67-.87 2.17-2.17Z"/><path d="M147.46 103.4c4.42 1.41 8.64 3.35 13.02 4.87 3.29 1.14 7.16 2.5 7.57 6.53.35 3.39-3.88 4.24-6.45 3.98-4.82-.48-9.98-2.86-14.45-4.64-.36-.14 1.14-2.04 1.75-2.79 1.13-1.39-1.17 2.07-.91 1.86.54-.45.74-1.18.91-1.86.32-1.26.65-2.55.52-3.84-.08-.74-.3-1.47-.37-2.21"/><path d="M147.06 104.87c3.46 1.36 6.83 2.95 10.3 4.29 2.31.9 5.11 1.54 7.06 3.11.82.66 1.41 1.47 1.56 2.52 0 .06.03.54.04.48.01-.11-.18.58-.06.28-.11.29.03.01-.17.25-.14.16-.1.14-.42.33-.67.39-1.69.58-2.48.61-1.33.05-2.65-.2-3.94-.5-3.88-.91-7.54-2.61-11.23-4.08l.92.53-.04-.04.53.92v-.07c-.01.37-.01.74-.01 1.1.04-.23-.04.1-.08.14.1-.09.17-.3.25-.42.19-.3.41-.6.62-.88 0 0 .27-.34.37-.47.28-.35.61-.46 0-.14l-2.84-.75c-.07-.52-.14-1.06-.21-1.59.13-.58.12-.28-.08.06-.16.27-.32.53-.48.8-.33.55-.82 1.22-.76 1.88.15 1.55 1.65 2.61 3.13 1.79 1.42-.78 1.88-2.8 2.16-4.25.18-.93.29-1.92.23-2.86-.06-.88-.3-1.73-.41-2.6-.13-1.05-.81-1.95-1.95-1.95-.96 0-2.08.9-1.95 1.95.14 1.22.51 2.38.27 3.61-.12.57-.27 1.14-.42 1.71-.06.25-.18.52-.21.78-.05.41-.49.41.19.04 1.04.6 2.08 1.2 3.13 1.79.11 1.13-.45 1.19-.13.75.08-.11.14-.23.2-.34.17-.29.35-.58.53-.87.48-.81 1.03-1.88.36-2.79s-1.76-1.32-2.84-.75c-.52.27-.89.84-1.24 1.29-.53.67-1.1 1.35-1.5 2.11-.5.95-.6 2.12.21 2.94.77.78 2.3 1.11 3.3 1.52 4.22 1.71 8.86 3.78 13.49 3.82 3.44.03 7.57-1.65 7.69-5.61.13-4.22-3.4-6.75-6.92-8.11-2.33-.9-4.71-1.68-7.06-2.56-2.73-1.03-5.46-1.97-8.28-2.69-1.93-.49-2.59 2.23-.81 2.92Zm-42.12-15.76c-1.74 2.07-5.06 4.86-7.36 6.5.07.03.13.05.2.08 3.21-.77 8.22-.69 10.33 1.63.7.76 1.22 1.85 1.54 3.05 5.67 2.17 10.33 3.85 11.63 4.18-.36-2.94.89-6.02 3.19-7.88v-.94c-1.68-.74-10.15-4.14-18.74-7.54l-.78.93Z"/><path d="M103.53 87.69c-2.01 2.35-4.46 4.38-6.96 6.19-1.48 1.06-1.16 2.99.48 3.66.96.39 2.22-.16 3.23-.24 1.06-.08 2.16-.1 3.21.06.93.14 1.97.38 2.75.95.97.71 1.1 1.81 1.58 2.82.65 1.37 2.85 1.75 4.18 2.25s2.59.97 3.89 1.44c1.6.58 3.21 1.21 4.85 1.64 1.15.3 2.66-.6 2.53-1.93-.18-1.78.16-3.48 1.18-4.96.48-.7 1.31-1.18 1.73-1.9.35-.6.27-1.29.27-1.95s-.36-1.45-.99-1.73c-6.32-2.77-12.8-5.21-19.21-7.74-.6-.24-1.53.02-1.95.51l-.78.93c-1.65 1.96 1.17 4.8 2.83 2.83l.78-.93-1.95.51c3.93 1.55 7.86 3.11 11.78 4.69 1.43.57 2.85 1.15 4.28 1.73.52.21 1.04.43 1.56.64.04.02.63.27.18.07.15.07.31.13.46.2l-.99-1.73v.94c.2-.47.4-.94.59-1.41-2.67 2.25-4.12 5.81-3.77 9.29l2.53-1.93c-3.96-1.04-7.81-2.72-11.63-4.18l1.4 1.4c-.89-3.07-2.77-5.23-5.9-6.09-2.72-.75-5.71-.62-8.44.01h1.06l-.2-.08.48 3.66c2.77-2 5.53-4.21 7.77-6.81 1.67-1.94-1.15-4.79-2.83-2.83Zm-21.05.85c2.38-2.13 4.63-4.38 6.79-6.74-1.57-.59-2.72-1-3.25-1.15-.64-.19-1.3-.37-1.96-.27-1.44.22-2.34 1.67-2.86 3.04-.23.6-.43 1.23-.43 1.87 0 1.26.78 2.38 1.71 3.26Z"/><path d="M83.9 89.96c2.37-2.13 4.63-4.39 6.79-6.74.49-.53.71-1.23.51-1.95s-.73-1.15-1.4-1.4c-.99-.37-1.97-.74-2.97-1.07-.48-.16-.97-.29-1.48-.36-1.02-.15-1.91-.05-2.85.36-1.14.5-2.03 1.58-2.6 2.66-.64 1.21-1.22 2.69-1.11 4.08.14 1.74 1.05 3.21 2.28 4.4.75.73 2.09.81 2.83 0s.81-2.05 0-2.83l-.39-.39c-.06-.06-.2-.28-.27-.31.17.23.19.25.06.08a5 5 0 0 1-.15-.23c-.07-.11-.14-.23-.2-.35l-.12-.24c.11.27.13.31.05.11-.03-.13-.07-.26-.11-.38-.11-.38.01.45 0-.06v-.22c.02-.23.01-.2-.02.09-.06-.25.2-.78.28-1l.15-.39-.06.15c.03-.07.07-.15.1-.22.11-.24.24-.47.38-.7.06-.09.22-.25.24-.35-.19.24-.22.29-.09.12.04-.04.08-.09.12-.13.07-.07.26-.2.29-.28-.26.19-.3.23-.13.1l.1-.06c.06-.04.13-.08.2-.11.19-.09.13-.07-.17.07.06 0 .28-.06.33-.09-.32.03-.35.04-.11.02h.3l-.23-.04c.1.02.2.03.3.06.29.06.58.14.86.23 1.06.33 2.1.73 3.14 1.12l-.88-3.34c-2.16 2.35-4.41 4.61-6.79 6.74-.78.7-.77 2.12 0 2.83.83.77 2 .75 2.83 0Zm43.77-38.29c-1.28-.89-2.58-1.75-3.84-2.66-.06-.04-.35-.27-.04-.03-.31-.23-.6-.48-.94-.68a8.2 8.2 0 0 0-1.97-.83c-1.58-.44-3.25-.43-4.86-.21-3.14.42-6.1 1.65-8.33 3.95-2.45 2.54-3.75 5.87-3.85 9.38-.05 1.65 2.27 2.74 3.41 1.41 1.31-1.53 2.83-3.29 4.94-3.61 1.72-.26 3.14.82 3.6 2.44s.26 3.38.04 5.01c-.31 2.31-.93 4.57-1.85 6.7-.55 1.28-.1 2.41 1.2 2.94 3.3 1.33 7.07 1.58 10.48.51s5.51-3.23 6.53-6.53c1.75-5.69.83-13.62-4.12-17.5-.85-.67-2-.83-2.83 0-.69.69-.85 2.16 0 2.83 3.75 2.94 4.4 8.68 3.26 13.03-.61 2.33-1.84 3.74-4.2 4.4-2.71.76-5.46.44-8.05-.61l1.2 2.94c1.27-2.94 2.05-5.87 2.44-9.04.3-2.5.3-5.13-.89-7.41-1.34-2.57-4.21-4.03-7.06-3.7-3.16.36-5.51 2.43-7.5 4.75l3.41 1.41c.15-5.38 4.37-9.25 9.65-9.47 1.09-.04 2.23.03 3.2.56.55.3 1.04.73 1.55 1.09l3.41 2.36c2.12 1.47 4.12-2 2.02-3.45ZM73.04 26.63c-.27-.28-.55-.56-.82-.84-.14-.15-.3-.25-.49-.31a1.15 1.15 0 0 0-.58-.13c-.21 0-.4.04-.58.13-.19.06-.35.16-.49.31l-.24.31c-.14.24-.21.49-.21.76l.05.4c.07.26.2.48.39.67.28.27.56.55.84.82.14.15.3.25.48.31.18.09.37.14.58.13.21 0 .4-.04.58-.13.19-.06.35-.16.48-.31l.23-.3c.14-.23.2-.49.2-.76l-.05-.4q-.105-.375-.39-.66Zm-7.58 11.81-1.12-.31-.55-.15c-.31-.09-.62-.11-.94-.12l-.39.05c-.19.04-.35.13-.49.26-.24.19-.45.45-.52.75-.06.26-.06.52 0 .77.04.19.13.35.26.49.1.16.24.28.41.37.27.14.54.28.84.34l.58.13 1.14.25c.39.09.79.05 1.14-.15.31-.18.6-.53.68-.88.09-.38.07-.8-.15-1.14s-.5-.57-.88-.68Zm-.01 14.42c-1.51-.49-3.19-.3-4.58.44-.36.19-.65.6-.75.98s-.06.92.17 1.26.56.66.98.75.88.06 1.26-.17c.18-.1.36-.2.55-.28l-.39.16c.38-.16.77-.27 1.18-.33l-.42.06q.585-.075 1.17 0l-.41-.05c.15.02.29.05.44.08.39.09.81.05 1.16-.15.31-.18.61-.54.69-.9.19-.83-.25-1.59-1.05-1.85m2.79 13.44-.57.22-.29.11c-.09.04-.19.06-.29.09q-.42.12-.72.42l-.26.33c-.15.26-.22.53-.22.83 0 .23.04.44.14.63.07.2.18.38.34.53.15.16.32.27.53.34.2.1.41.15.63.14.3 0 .57-.08.83-.22.08-.06.17-.12.26-.17l.27-.15.54-.3c.18-.1.32-.23.43-.39.14-.15.23-.32.27-.52l.05-.41c0-.21-.04-.41-.13-.59a.8.8 0 0 0-.2-.34c-.11-.17-.25-.3-.43-.39l-.37-.15q-.405-.105-.81 0Zm9 8.62c2.03 0 2.03-3.16 0-3.16s-2.03 3.16 0 3.16"/></svg>