<?xml version="1.0" encoding="UTF-8"?><svg xmlns="http://www.w3.org/2000/svg" viewBox="0 0 180 180"><path d="M82.59 163.31c-1.49-7.2-1.4-14.59-2.69-21.8-.32-1.79-.57-3.75-2.13-4.91-1.76-1.31-4.39-1.7-6.46-2.32-3.55-1.05-7.61-2.43-9.48-5.92-1.02-1.89-.84-4.18-.76-6.25.09-2.44 0-4.84-.24-7.27-.23-2.28-.25-4.9-1.48-6.91-.84-1.37-2.21-2.32-3.64-2.98-1.32-.61-2.59-.9-3.76-1.79.3.23-.36-.38-.24-.23.1.12-.22-.56-.16-.3-.13-.53.13-.97.5-1.48 1.03-1.4 2.55-2.41 3.74-3.66 1.43-1.51 2.6-3.28 3.55-5.13 2.03-3.95 3.47-8.19 5.38-12.2 1.03-2.15 2.1-4.29 3.17-6.42.93-1.86 1.85-3.81 3.18-5.42 2.46-2.97 6.15-4.17 9.82-4.85 4.2-.78 8.56-1.08 12.82-1.29 4.62-.23 9.32-.18 13.88.7 3.7.71 7.78 1.8 10.63 4.42 3.1 2.85 3.49 7.16 3.86 11.13.43 4.67.49 9.37.35 14.06-.28 9.37-1.36 18.68-2.05 28.02s-.31 18.41.99 27.52q.48 3.405 1.23 6.78c.75 3.375 3.83 1.25 3.33-.92a66 66 0 0 1-1.71-14.28c-.03-2.37 0-4.74.1-7.1s.43-4.91.58-7.37c.58-9.66 1.74-19.28 2.23-28.94.25-4.84.3-9.7.01-14.54s-.5-9.7-2.61-13.9c-4.1-8.19-15.34-10.01-23.51-10.38-4.96-.23-9.92.15-14.85.65-4.08.42-8.23.86-12.04 2.45-4.29 1.78-7.2 4.87-9.36 8.93-2.31 4.35-4.51 8.81-6.43 13.34-1.59 3.75-2.89 7.97-5.67 11.06-2.56 2.85-6.95 5.43-5.8 9.95.91 3.58 4.49 4.29 7.17 5.75.54.3.91.5 1.19.91.43.62.51 1.87.6 2.72.29 2.53.53 5.07.47 7.62s-.27 4.98.33 7.43c.51 2.08 1.69 3.98 3.2 5.49 3.31 3.31 7.85 4.62 12.22 5.87.89.25 1.99.43 2.82.85.14.07-.1-.19-.1-.19.09.12.13.47.17.64.11.44.2.88.29 1.33.36 1.75.71 3.51 1.03 5.27.73 3.94 1.31 7.9 1.97 11.84.28 1.67.59 3.34.99 4.99.53 2.21 3.85 1.27 3.39-.93Z"/><path d="M78.66 162.38c-1.38 1.02-3.23 1.31-4.89 1.5-2.1.24-4.26.13-6.3-.38-.96-.24-1.45-.41-2.21-.9-.56-.35.22.25-.25-.18-.15-.14-.3-.28-.43-.44.23.29.04.02 0-.04-.26-.45-.49-.91-.68-1.4-.54-1.4-.79-2.91-.88-4.4-.1-1.59.07-3.2-.47-4.74-.45-1.29-1.23-2.47-2.28-3.34-1.25-1.03-2.65-1.4-4.13-1.99-2.52-1.02-4.71-2.63-6.71-4.45-4.66-4.25-6.32-10.67-6-16.82.08-1.55.06-3.06-.7-4.46s-1.94-2.38-3.21-3.18c-2.47-1.55-4.73-2.89-6.6-5.2C29.4 107.61 28.06 101 31.03 96c1.62-2.73 4.34-4.41 6.75-6.37 2.61-2.12 4.72-4.76 6.29-7.73 3.3-6.22 5.38-13.05 6.82-19.92.68-3.23 1.09-6.65 2.62-9.61 1.29-2.49 3.21-4.62 5.42-6.33 5.17-4 11.74-5.62 18.09-6.56 14.52-2.14 29.59-1.93 44.08.28 5.26.8 10.72 1.9 15.26 4.82 2.08 1.34 3.84 3.12 5.01 5.31 1.51 2.84 1.75 6.14 1.81 9.3.15 7.45-.42 14.89-.51 22.34s.01 15.01.07 22.51.12 15.02.6 22.52c.24 3.79.63 7.58.77 11.38.13 3.33-.18 6.9 1.17 10.01.54 1.25 1.22 2.42 1.88 3.61.61 1.1 1.33 2.26 1.5 3.52.34 2.48.03 5.52-2.63 6.45-1.19.41-2.47.49-3.72.55-1.93.09-3.86.15-5.79.22-2.63.1-6.29.85-8.22-1.45-1.5-1.79-1.94-4.44-2.15-6.68-.21-2.12-3.55-2.14-3.34 0 .28 2.85.54 5.86 2.01 8.38 1.71 2.95 4.66 4.08 7.95 4.08 3.74 0 7.64-.08 11.36-.48 3.09-.34 6.23-1.4 7.71-4.36 1.38-2.76 1.4-6.69.23-9.52-1.08-2.62-3.43-4.91-3.99-7.71-.36-1.81-.39-3.76-.53-5.6-.17-2.15-.25-4.28-.27-6.43-.03-3.96-.03-7.92-.01-11.88.04-8.09-.19-16.18-.2-24.26-.01-8.05.02-16.09.24-24.13.11-3.99.21-7.97.14-11.96-.06-3.53-.3-7.17-1.57-10.5-2.23-5.8-7.22-9.4-12.85-11.56-6.27-2.41-13.18-3.14-19.81-3.77-7.94-.76-15.94-.92-23.91-.47-13.44.76-30.34 2.16-38.3 14.75-1.87 2.96-2.76 6.31-3.42 9.71-.74 3.82-1.66 7.55-2.95 11.22a76 76 0 0 1-4.33 10.04c-.79 1.52-1.62 3.06-2.67 4.42s-2.29 2.46-3.56 3.55c-2.59 2.23-4.99 4.54-6.52 7.65-1.41 2.87-2.28 6-2.1 9.23.38 6.69 4.43 12.38 10.28 15.47 1.15.6 2.63 1.17 3.48 2.19 1.02 1.23.92 3.38 1.02 4.88.24 3.5.64 7.12 1.95 10.4 2.37 5.92 6.89 10.43 12.8 12.77 1.1.43 2.23.66 2.97 1.66.9 1.23.59 2.8.68 4.23.18 3.04.79 6.78 2.97 9.09 3.25 3.45 9.27 3.41 13.54 2.55 2-.41 4.07-1.33 5.46-2.87 1.15-1.28-.4-3.67-1.95-2.53Z"/><path d="M45.84 163.5c0-1.86.02-3.72.02-5.57 0-1.04-.82-1.67-1.78-1.78-5.42-.62-10.41-4.86-12.12-10.01-.97-2.91-.9-5.82-1.13-8.84-.25-3.34-1.44-5.99-4.43-7.72-2.43-1.41-5.01-2.39-7.2-4.22s-3.7-3.63-4.91-6.06c-2.4-4.82-2.92-10.42-2.48-15.71.55-6.72 2.68-13.56 5.68-19.58s7.93-10.82 10.31-17.18c1.2-3.21 1.56-6.7 2.11-10.07s1.09-6.57 1.85-9.82c1.51-6.51 3.9-12.91 8.51-17.89 9.87-10.65 25.08-13 38.89-13.37 8.17-.22 16.36-.06 24.52.31s15.81.8 23.62 1.85 14.78 3.01 21.21 7.09a41.76 41.76 0 0 1 13.6 14.06c1.71 2.9 3.2 5.92 4.17 9.15 1.15 3.8 1.66 7.67 1.79 11.63.26 7.75-.94 15.44-1.6 23.14-.69 8.11-.1 16.26 0 24.4s-.13 16.28-.95 24.37c-.28 2.78-.75 5.57-.84 8.37-.07 2.29-.01 4.58.07 6.87.16 4.65.57 9.71-.66 14.24-.38 1.38-.97 3.06-2.31 3.81s-.14 2.91 1.25 2.13c3.89-2.16 4.7-7.05 5.18-11.09.59-5.01.27-10.07.37-15.1.06-2.86.58-5.66.82-8.5.35-4.12.53-8.26.58-12.39.12-8.46-.21-16.96.34-25.41.54-8.22 1.03-16.46 1.42-24.69s.3-16.46-2.1-24.32c-4.31-14.14-15.77-25.07-29.76-29.6-7.74-2.51-16.02-3.07-24.09-3.63-8.56-.6-17.14-.92-25.72-.96-15.33-.06-31.96.11-45.32 8.68-5.89 3.78-10.62 8.99-13.5 15.39s-4.2 13.73-5.35 20.83c-.56 3.43-.93 6.96-2.29 10.19s-3.21 5.79-4.92 8.64c-3.87 6.46-7.29 13.13-9.04 20.5-1.41 5.93-1.88 12.14-.76 18.16.99 5.34 3.6 10.98 7.76 14.59 1.14.99 2.4 1.95 3.74 2.65 1.45.75 2.99 1.27 4.49 1.9 3.48 1.47 2.77 5.11 2.52 8.19-.53 6.43 2.66 12.4 8.06 15.89 2.58 1.67 5.54 2.61 8.62 2.72l-1.78-1.78.45 5.57c.16 1.96 3.09 2.02 3.09 0Z"/><path d="m160.42 164.6-.33.06h.63c-.13-.03-.27-.07-.4-.06-.04 0-.07 0-.11.01l-.22.03c-.12.01-.25.03-.37.05-.07 0-.13 0-.19.03l-.31.13s-.03.01-.05.02l-.11.05-.26.2a1 1 0 0 0-.26.41.6.6 0 0 0-.09.32c-.04.17-.03.34.02.51l.13.3.2.26c.12.12.25.21.41.26.15.08.32.12.49.11.18-.02.36-.03.54-.07l.31-.13h.03s.03-.03.05-.03l.1-.04.19-.08s.07-.03.1-.04c.01 0 .02 0 .03-.02l.25-.19.04-.04-.52.31.32-.11c.15-.04.28-.11.4-.21q.195-.12.3-.33c.09-.13.13-.28.14-.43a.9.9 0 0 0-.02-.46l-.12-.28q-.15-.255-.42-.42l-.28-.12a1.1 1.1 0 0 0-.62 0M87.97 88.8c.26-2.56 1.35-5.1 2.3-7.46s2.16-4.88 2.94-7.41l-3.47.45c2.09 4.14 3.56 8.52 4.49 13.06.31 1.53 2.2 1.72 3.21.85 3.67-3.14 7.46-6.18 11.48-8.86l-2.88-2.21c-1.27 5.03-2.99 9.81-5.5 14.37-.73 1.33.18 3.03 1.74 3.03 4.28 0 8.56.8 12.51 2.49v-3.5c-4.57 2.2-9.13 4.4-13.7 6.61-1.52.73-1.21 2.83 0 3.64 4.04 2.7 7.63 5.99 10.72 9.73l1.5-3.63c-4.94-.13-9.61-.95-14.34-2.35-1.35-.4-2.92.72-2.85 2.17.31 6.26 1 12.49 1.91 18.69l3.8-2.21c-4.62-3.92-7.89-9.1-9.28-15.01-.37-1.57-2.71-2.32-3.8-1-3.47 4.19-6.97 8.51-11.92 11l3.35 1.36c-1.03-5.74 2.88-11.22 5.97-15.67.95-1.37-.3-3.55-1.96-3.42-5.16.39-10.2-.4-15-2.33l.54 4.13c4.22-2.34 8.55-4.46 13.01-6.31.85-.35 1.5-.9 1.61-1.87.1-.83-.26-1.86-1.08-2.25-4.81-2.29-8.88-5.82-11.68-10.35l-2.51 3.27c5.57.94 11.13 1.98 16.66 3.12 2.78.57 3.96-3.68 1.18-4.26q-8.295-1.725-16.65-3.15c-1.8-.31-3.61 1.48-2.51 3.27 3.19 5.17 7.76 9.38 13.25 12l.54-4.12c-4.82 1.99-9.53 4.23-14.09 6.75-1.87 1.03-1.15 3.45.54 4.13 5.12 2.07 10.7 2.93 16.2 2.52l-1.96-3.42c-3.95 5.68-7.72 11.99-6.44 19.18.27 1.54 2.15 1.97 3.35 1.36 5.28-2.66 9.18-7.2 12.82-11.73l-3.8-1c1.64 6.58 5.27 12.6 10.44 17.01 1.82 1.55 4.12.03 3.8-2.21-.84-5.8-1.39-11.64-1.79-17.48l-2.85 2.17c5.01 1.39 10.34 2.12 15.53 2.27 1.99.06 2.6-2.29 1.5-3.63-3.32-4.04-7.23-7.5-11.6-10.36v3.64c4.54-2.25 9.08-4.5 13.62-6.74 1.75-.87.96-3.1-.48-3.7a36.3 36.3 0 0 0-14.07-2.82l1.74 3.03c2.63-4.79 4.71-10 5.8-15.36.3-1.49-1.38-3.32-2.88-2.21-4.16 3.07-8.28 6.16-12.22 9.52l3.21.85c-.99-4.86-2.67-9.54-4.91-13.96-.77-1.52-3.02-1.03-3.47.45-1.59 5.24-4.46 10.35-4.84 15.88-.15 2.12 3.06 2.06 3.27 0Z"/><path d="m58.39 94.02-6.32 7.21c-.62.7-1.28 1.64-.9 2.49.23.52.77.81 1.27 1.06 2.95 1.49 5.91 2.99 8.86 4.48.45.23.93.47 1.22.89.57.78-.9-.6-1.14.34-1.16 4.53-.57 11.66-.66 16.34-.02 1.08 0 2.18.4 3.18.57 1.39 1.83 2.37 3.18 3.02 4.44 2.13 10.28 1.33 13.75 4.82 2.49 2.5 2.83 6.36 3.04 9.88l.6 10.28c.15 2.61.12 5.65-1.94 7.25-1.28 1-3.02 1.14-4.65 1.24 18.01-.96 36.04-1.66 54.07-2.11-.67.39-1.48-.14-2.06-.65-2.95-2.53-2.46-3.31-3.99-6.87-1.11-2.58-1.38-5.24-1.59-8.05-.69-9.21-1.75-21.32 0-30.4.21-1.11-2.7-1.71-3.43-2.56-.48-.56-1.24-.77-1.95-.95-4.15-1.07-8.31-2.13-12.46-3.2-.6-.15-1.33-.27-1.75.19-.34.37-.29.95-.21 1.45.83 5.34 1.98 10.63 3.44 15.83-3.84.21-7.47-2.08-9.85-5.1s-3.74-6.69-5.05-10.3c-1.35 6.58-7.41 11.91-14.11 12.39.23-6.6 1.82-13.16 4.64-19.13-4.18.94-8.7.25-12.4-1.9-.6-.35-1.25-.89-1.13-1.57.07-.39.39-.69.69-.95 2.79-2.41 5.8-4.55 8.98-6.4a34.3 34.3 0 0 1-8.99-11.91c5.92-.51 11.93.02 17.67 1.56.32-5.36 3.77-9.94 7.08-14.16 1.79 3.98 3.22 8.12 4.26 12.36 2.93-3.99 7.04-7.08 11.69-8.78.72 5.25-.05 10.7-2.19 15.55a63.2 63.2 0 0 1 12.09 4.62 77 77 0 0 1-14.18 7.52c3.37 3.3 6.73 6.6 10.1 9.91 1.26 1.23 2.83 2.57 4.56 2.2 2.31-.49 2.89-3.47 2.97-5.83.24-6.28.47-12.57.71-18.85.17-4.4.33-8.86-.56-13.18s-2.93-8.55-6.44-11.22c-3.82-2.9-8.83-3.61-13.62-3.85-5.71-.29-11.44-.04-17.1.73-3.63.49-7.36 1.26-10.33 3.39-5.89 4.23-7.1 12.29-9.86 18.99-1.56 3.8-3.75 7.33-6.45 10.43"/><path d="M57.27 92.91c-1.72 1.89-3.42 3.79-5.18 5.64-1.45 1.52-3.58 3.34-2.79 5.69.69 2.05 3.49 2.94 5.24 3.84 1.18.61 2.36 1.2 3.54 1.8l1.77.9c.4.21 1.15.91.84.14l.53-1.99-.02.03 1.99-.53h-.07c.42.16.34.13-.23-.12-.11-.04-.2-.09-.31-.12-.51-.13-1.04-.14-1.55.01-1.37.42-1.69 1.77-1.93 3.01-.47 2.43-.58 4.91-.61 7.38s.09 5.05.08 7.57c-.02 2.76.25 5.35 2.47 7.27 3.87 3.35 9.1 2.59 13.5 4.59 4.86 2.21 4.35 8.66 4.61 13.12.18 3.12.62 6.35.43 9.48-.06.96-.24 2.08-.96 2.78-.88.86-2.35.88-3.5.96-2.72.18-2.76 4.43 0 4.27 18-1.03 36.05-1.68 54.07-2.22l-.54-3.97.14.04c-.2-.11-.38-.25-.55-.42-.27-.23-.52-.47-.76-.73-.26-.27-.51-.54-.71-.85-.51-.78-.68-1.51-1.03-2.48-.45-1.25-1.02-2.45-1.37-3.73-.45-1.64-.63-3.32-.76-5.01-.49-6.15-.97-12.32-.98-18.49 0-3.1.1-6.23.5-9.31.15-1.2.72-2.65.4-3.84s-1.37-1.89-2.41-2.42c-.41-.21-.84-.39-1.24-.62-.28-.16-.75-.68-1.26-.97-1.42-.81-3.19-1.05-4.75-1.46-1.76-.46-3.51-.92-5.27-1.37s-3.68-1.21-5.5-1.31-3.35 1.12-3.49 2.96.47 3.76.78 5.48c.74 3.99 1.66 7.93 2.75 11.84l2.06-2.71c-7.46.24-10.71-8.05-12.82-13.83-.67-1.84-3.67-2.25-4.16 0-1.24 5.67-6.18 10.3-12.04 10.81l2.15 2.15c.23-6.24 1.68-12.4 4.31-18.07.78-1.67-.5-3.49-2.37-3.08-3.53.76-7.23.21-10.41-1.51-.14-.09-.29-.17-.44-.24-.38-.23-.43.13-.16 1.06.2.02.92-.8 1.1-.95q1.11-.93 2.28-1.8a59 59 0 0 1 5.38-3.54c1.1-.64 1.47-2.41.43-3.3a33.7 33.7 0 0 1-8.68-11.47l-1.8 3.14c5.77-.47 11.52 0 17.12 1.47 1.38.36 2.52-.66 2.62-2 .36-4.86 3.57-9.01 6.46-12.71l-3.23-.42c1.71 3.83 3.04 7.81 4.05 11.87.47 1.88 2.77 1.82 3.76.49 2.64-3.53 6.34-6.29 10.46-7.84l-2.6-1.98c.63 4.92.06 9.94-1.92 14.51-.52 1.2-.17 2.65 1.23 3.03 4.01 1.1 7.87 2.55 11.57 4.46v-3.67c-4.33 2.81-8.9 5.29-13.69 7.24-1.46.59-2.25 2.4-.97 3.66l6.27 6.15c1.92 1.88 3.79 4.12 6.06 5.58 2.08 1.34 4.78 1.44 6.67-.29 1.59-1.45 2.07-3.72 2.26-5.77.26-2.77.23-5.6.32-8.39.1-2.98.19-5.95.28-8.93.18-5.65.63-11.41-.67-16.98-1.08-4.63-3.48-8.97-7.3-11.87-4.12-3.13-9.38-3.9-14.42-4.19-5.82-.33-11.67-.09-17.45.7-5.02.68-10.09 1.93-13.73 5.7S66 74.75 64.45 79.44c-1.77 5.35-3.97 10.35-7.69 14.66-1.87 2.17 1.28 5.34 3.16 3.16a42.2 42.2 0 0 0 7.41-12.25c1.43-3.64 2.41-7.47 4.12-10.99s4.16-6.28 7.95-7.55c4.62-1.56 9.78-1.85 14.61-2.04s9.77-.28 14.44.81c4.16.97 7.52 3.03 9.62 6.82 2.26 4.07 2.69 8.8 2.69 13.36 0 5.29-.37 10.59-.59 15.88-.12 2.85-.12 5.73-.36 8.57-.08.92-.29 3.35-1.65 3.06-.98-.21-1.83-1.26-2.5-1.93-1.1-1.08-2.2-2.17-3.3-3.25l-6.44-6.32-.97 3.66c5.16-2.09 10.08-4.64 14.67-7.79 1.21-.83 1.55-2.92 0-3.67-4.05-1.96-8.27-3.59-12.62-4.77l1.23 3.03c2.26-5.24 3.2-10.91 2.47-16.59-.15-1.19-1.21-2.5-2.6-1.98-5.21 1.96-9.58 5.27-12.91 9.73l3.76.49c-1.1-4.42-2.61-8.7-4.46-12.86-.5-1.13-2.46-1.4-3.23-.42-3.65 4.66-7.23 9.52-7.69 15.62l2.62-2a54.3 54.3 0 0 0-18.22-1.65c-1.66.13-2.49 1.65-1.8 3.14a36.5 36.5 0 0 0 9.31 12.34l.43-3.3a64.5 64.5 0 0 0-7.29 4.96c-1.01.79-2.31 1.61-2.99 2.73-.76 1.27-.54 2.82.45 3.9 1.64 1.78 4.68 2.69 6.99 3.15 2.77.55 5.55.5 8.31-.08l-2.37-3.08c-2.99 6.36-4.69 13.16-4.98 20.19-.05 1.09 1.02 2.24 2.15 2.15 7.7-.63 14.53-6.34 16.19-13.97h-4.16c1.53 4.19 3.13 8.44 6.11 11.84 2.72 3.1 6.68 5.27 10.88 5.12 1.38-.05 2.45-1.33 2.06-2.71-.77-2.75-1.47-5.53-2.07-8.33-.28-1.32-.55-2.65-.79-3.97-.13-.7-.25-1.41-.37-2.11-.06-.35-.09-.71-.17-1.05-.15-.61.26-.26-.16.07l-.94.55c.65-.25 2.5.54 3.26.73 1.44.37 2.88.73 4.32 1.1l4.08 1.02c.6.15 1.35.23 1.92.5.38.19.69.55 1.04.79.63.43 1.36.68 2.02 1.04.55.3.58.57.29-.21-.36-.96-.24-.17-.31.25a66 66 0 0 0-.76 8.37c-.15 5.04.1 10.09.45 15.12s.22 10.16 2.06 14.7c.71 1.77 1.2 3.81 2.25 5.41 1.28 1.94 3.82 4.61 6.36 3.73 2.07-.72 1.85-4.02-.54-3.97-18.04.35-36.04 1.1-54.07 1.99v4.27c2.51-.15 5.15-.51 6.87-2.55 1.61-1.91 1.96-4.45 1.91-6.86-.05-2.93-.32-5.87-.49-8.8-.16-2.68-.22-5.4-.77-8.03-.5-2.39-1.58-4.79-3.45-6.43s-4.16-2.47-6.54-3c-2.25-.5-4.62-.74-6.78-1.59-.88-.35-1.86-.85-2.44-1.63-.68-.92-.55-2.15-.54-3.22.03-2.63-.07-5.27-.08-7.9 0-1.44.01-2.87.11-4.31.08-1.09.1-2.41.52-3.44l-.53.91.11-.11-.91.53c-.48.18-.89-.13-.33.08.1.04.2.09.3.11 1.01.18 1.71-.15 2.31-.94l.02-.03c.47-.61.27-1.44 0-2.06-.67-1.54-2.95-2.25-4.32-2.93-2-1-4-2-6-2.99-.39-.19-.95-.36-1.27-.66l.18.35c.12-.22.25-.43.4-.63.59-.82 1.28-1.6 1.92-2.39 1.37-1.67 2.78-3.31 4.17-4.96 1.29-1.53-.85-3.75-2.23-2.23Z"/></svg>