<?xml version="1.0" encoding="UTF-8"?><svg xmlns="http://www.w3.org/2000/svg" viewBox="0 0 180 180"><path d="M32.85 161.67c-5.13-18.44-10.21-36.89-15.33-55.34-1.47-5.29-2.97-10.58-4.2-15.93l-2.95 2.95c20.62 3.6 41.32 6.64 62.07 9.34 20.69 2.69 41.42 4.99 62.16 7.2 11.69 1.25 23.38 2.46 35.08 3.66-.55-1.34-1.11-2.67-1.66-4.01-1.09.95-1.57 1.29-2.84 2.19-1.4.98-2.83 1.92-4.28 2.82-3.31 2.08-6.7 4.03-10.11 5.92-6.3 3.5-12.7 6.85-19.21 9.95a795 795 0 0 1-53.64 23.21c-10.92 4.25-21.93 8.25-32.96 12.2-2.47.88-1.4 4.86 1.09 3.96 19.06-6.85 38.22-13.61 56.88-21.49 16.22-6.85 32.34-14.06 47.81-22.48 3.96-2.16 7.89-4.38 11.73-6.75 3.06-1.89 6.13-3.86 8.85-6.22 1.69-1.47.17-3.82-1.66-4.01-20.61-2.13-41.21-4.33-61.79-6.69-20.59-2.36-41.15-4.94-61.66-7.95-11.55-1.7-23.08-3.49-34.59-5.48-1.67-.29-3.59 1.06-2.95 2.95 3.05 9.07 5.5 18.34 8.15 27.53 2.65 9.2 5.32 18.39 7.98 27.58 1.53 5.28 3.04 10.56 4.55 15.84.64 2.22 4.09 1.28 3.47-.96Z"/><path d="M44.88 169.51c6.12-8.84 12.4-17.59 18.64-26.35a3227 3227 0 0 1 18.71-25.97c6.29-8.62 12.61-17.22 18.94-25.8 6.09-8.25 12.08-16.58 18.37-24.69 6.65-8.57 13.83-16.8 22.35-23.58l-3.18-.41a1042 1042 0 0 1 29.33 69.08c.39 1.03 1.37 1.74 2.51 1.42.98-.27 1.82-1.47 1.42-2.51-7.02-18.43-14.59-36.65-22.68-54.64a1072 1072 0 0 0-7.08-15.41c-.61-1.3-2.26-1.14-3.18-.41-15.52 12.37-26.72 29.36-38.38 45.19-12.8 17.37-25.59 34.76-37.99 52.42-6.97 9.93-13.75 19.97-20.45 30.08-1.11 1.67 1.55 3.18 2.67 1.56ZM10 90.93c9.61-26.9 20.13-53.47 31.53-79.66 25.58 4.93 51.37 8.78 77.27 11.55-1.47-.16-5.6 2.98-7.06 3.67-12.03 5.67-24.46 10.43-36.9 15.11-6.22 2.34-12.46 4.65-18.66 7.05-4.07 1.57-11.57 3.97-13.7 5.75-.44.36-.48 1.02-.58 1.58a230.7 230.7 0 0 0-3.64 38 293 293 0 0 0-25.13-4.36"/><path d="M11.66 91.39c7.98-20.68 15.73-41.43 24.28-61.89 2.4-5.75 4.85-11.49 7.34-17.2l-2.29.93c20.06 3.86 40.22 7.1 60.48 9.71 5.77.74 11.55 1.46 17.33 2.12v-4.47c-2.56-.11-5.19 2.1-7.27 3.35-1.55.93-3.26 1.6-4.91 2.33-2.05.91-4.1 1.82-6.16 2.7-8.43 3.6-17 6.87-25.58 10.09-7.9 2.97-15.78 6.02-23.72 8.91-2.97 1.08-6.1 2.1-8.85 3.68-1.52.88-2.4 1.93-2.7 3.69-.41 2.33-.8 4.67-1.15 7.01a237 237 0 0 0-2.53 31.62c.99-.75 1.98-1.51 2.97-2.26-8.51-1.84-17.12-3.28-25.76-4.41-1.24-.16-2.3 1.17-2.3 2.3 0 1.38 1.06 2.14 2.3 2.3 8.24 1.07 16.4 2.54 24.51 4.32 1.49.33 2.94-.68 2.97-2.26.13-8.98.76-17.96 1.94-26.86.28-2.14.6-4.27.95-6.4.17-1.05.35-2.09.53-3.14.07-.39.37-1.1.26-1.48-.02-.08-.1-.28-.13 0-.01.13-.35.19-.02.03 1.07-.51 2.07-1.14 3.17-1.61 1.46-.62 2.95-1.16 4.44-1.71 15.73-5.76 31.52-11.57 46.99-18.01 4.62-1.93 9.22-3.92 13.74-6.08 1.2-.58 2.31-1.33 3.43-2.05.67-.43 1.33-.87 2.03-1.25.26-.14.44-.23.48-.25.13-.05.26-.08.39-.12.31-.09-.48 0-.02.02 1.21.04 2.23-1.05 2.23-2.23 0-1.31-1.03-2.11-2.23-2.23-20.03-2.03-39.96-4.82-59.8-8.21-5.65-.97-11.3-1.98-16.93-3.07-.8-.15-1.92.08-2.29.93-8.93 20.55-17.38 41.31-25.15 62.33-2.19 5.93-4.31 11.89-6.29 17.9-.71 2.14 2.54 2.95 3.33.92Z"/><path d="M107.91 29.75c7.31-2.73 14.58-5.53 21.83-8.42.7-.28 1.48-.95 1.38-1.82l-.02-.14c-.09-.79-.51-1.61-1.37-1.8-.48-.11-.87-.11-1.34 0-1.76.43-1.56 2.85 0 3.37l.2.07-.8-.47.13.13-.48-1.81-.02.13 1.31-1.31c-7.37 3.02-14.69 6.11-22 9.28-1.56.68-.44 3.37 1.17 2.77ZM66.15 65.89c1.73 3.7 6.71 1.92 9.24.32 1.49-.94 3.66-2.31 3.51-4.32-.18-2.4-2.83-2.92-4.7-2.16-1.75.72-1.96 3.13 0 3.78 2.09.69 4.27-.34 6.24-1 2.09-.7 4.18-1.42 6.26-2.15s4.16-1.49 6.22-2.27c1.07-.4 2.14-.81 3.21-1.22s2.19-.72 3.04-1.54c1.16-1.11.25-3.06-1.28-3.09-1.1-.02-2.03.47-3.05.86-.92.35-1.83.7-2.75 1.04-1.91.72-3.83 1.42-5.76 2.11a366 366 0 0 1-8.35 2.89c-.83.28-1.86.8-2.74.58.16 1.19.31 2.39.47 3.58.45-.15.3-.37-.44-.65v-.99c-.11.41-1.2 1.03-1.55 1.28-.67.46-1.39.89-2.14 1.21s-2.14.74-2.52.03c-1.04-1.94-3.82-.24-2.91 1.7Zm3.25 13.86c4.85-2 9.75-3.88 14.67-5.68 2.39-.88 4.79-1.72 7.2-2.54 2.55-.86 5.2-1.56 7.71-2.54 2.33-.91 1.48-4.47-1.06-3.83s-5.01 1.65-7.47 2.53-5.09 1.86-7.61 2.83c-4.97 1.92-9.86 4.03-14.71 6.24-1.66.76-.46 3.69 1.26 2.98Zm6.92 10.43c1.16-.2 2.28-.8 3.37-1.24 1.16-.47 2.32-.93 3.49-1.37 1.14-.42 2.28-.81 3.44-1.17q.87-.27 1.74-.51c.92-.25 1.62-.45 2.19-1.29.49-.73.2-2.06-.64-2.43-.57-.25-1.01-.4-1.64-.26-.31.07-.62.19-.93.29-.61.2-1.23.42-1.84.64-1.18.42-2.35.87-3.51 1.36-1.22.51-2.43 1.04-3.62 1.64-1.15.59-2.43 1.19-3.35 2.12-1 1.01.05 2.43 1.29 2.22Zm17.24 11.45c9.23.18 18.32 2.11 27.49 3.14 9.93 1.12 19.96 1.17 29.87 2.45 5.73.74 11.4 1.89 17.06 3.03-2.19-4.63-4.38-9.27-7.22-13.54-1.41-2.12.67-4.49-.51-6.75-1.28-2.46-4.3-7.35-5.52-9.85-1.34-2.75-.86-6-2.3-8.69-2.93-5.49-7.9-8.36-9.13-14.46l-2.43-12.09c-8.18 6.16-11.52 12.48-18.29 20.15-2.94 3.32-7.2 9.9-10.31 13.06-6.38 6.48-11.44 14.12-16.46 21.7"/><path d="M93.56 103.32c9.66.35 19.12 2.61 28.71 3.61 9.69 1.02 19.47 1.11 29.13 2.4 5.39.72 10.72 1.8 16.04 2.87 1.81.37 3.06-1.36 2.29-2.98-1.19-2.53-2.39-5.05-3.69-7.52-.58-1.1-1.17-2.18-1.8-3.25-.57-.98-1.78-2.25-1.95-3.37-.14-.94.28-2.01.35-2.95.09-1.22-.19-2.32-.75-3.41-.87-1.71-1.89-3.35-2.85-5.01-.91-1.58-1.99-3.19-2.66-4.9-.91-2.3-.72-4.88-1.62-7.18-1.59-4.06-5.04-6.91-7.42-10.46-1.5-2.25-2.01-4.55-2.54-7.17-.65-3.22-1.32-6.45-1.9-9.68-.23-1.26-2.05-2.01-3.09-1.26-7.64 5.55-12.73 13.5-18.85 20.55-2.69 3.1-4.95 6.54-7.49 9.77-2.93 3.72-6.37 6.98-9.29 10.72-3.66 4.69-6.96 9.64-10.25 14.6-1.54 2.32 2.2 4.48 3.72 2.18 2.85-4.3 5.69-8.61 8.8-12.73 1.53-2.03 3.14-4 4.83-5.89 1.43-1.6 2.98-3.09 4.34-4.74 2.62-3.18 4.9-6.63 7.5-9.83 2.83-3.49 5.71-6.94 8.51-10.46 3.2-4.03 6.67-7.65 10.71-10.86l-3.52-.93c.65 2.89 1.21 5.79 1.79 8.69.51 2.52.92 5 2.09 7.32 1.91 3.79 5.29 6.55 7.46 10.17 1.25 2.09 1.3 4.38 1.8 6.7.45 2.08 1.5 3.91 2.54 5.74s2.12 3.64 3.16 5.48c.36.64.85 1.29.89 2.04.06 1.08-.36 2.15-.37 3.24-.02 1.53.62 2.65 1.42 3.9s1.61 2.65 2.35 4.01c1.52 2.79 2.88 5.67 4.24 8.55l2.29-2.98c-9.66-1.95-19.25-3.54-29.1-4.19-4.9-.33-9.81-.57-14.71-1-4.93-.43-9.82-1.1-14.72-1.77-5.46-.74-10.93-1.35-16.44-1.39-2.18-.02-2.17 3.3 0 3.38Zm-23.63 54.97c6.88-10.46 13.89-20.83 21.26-30.95.9-1.23 1.8-2.46 2.71-3.69.38-.52.74-1.08 1.17-1.56.53-.6.89-.47 1.68-.41 3.22.24 6.44.49 9.65.74 6.44.49 12.87.96 19.31 1.43 3.63.27 7.26.53 10.89.8 1.73.13 3.47.25 5.2.38 1.88.14 3.82.43 5.69.25 1.92-.18 2.6-3.04.48-3.56-1.62-.4-3.28-.43-4.94-.55-1.82-.13-3.63-.27-5.45-.4l-9.9-.72c-6.77-.49-13.53-1-20.3-1.47l-9.9-.69c-1.5-.1-2.91-.21-4.2.68-1.18.81-1.98 2.22-2.81 3.37-3.86 5.32-7.65 10.7-11.34 16.13-4.15 6.1-8.17 12.28-12.02 18.57-1.11 1.8 1.67 3.39 2.82 1.65"/><path d="M92.63 149.64c1.77-2.89 3.6-5.73 5.37-8.61.88-1.44 1.77-2.88 2.66-4.32.34-.56.47-1.05 1.11-1.1.73-.06 1.6.24 2.32.34 3.26.47 6.55.75 9.84.82 1.68.04 3.37.03 5.05-.03 1.73-.06 3.59-.04 5.28-.45 2.06-.5 1.5-3.45-.48-3.56-1.81-.1-3.7.22-5.52.27s-3.69.05-5.53-.02c-3.57-.13-7.05-.71-10.59-1.02-1.65-.14-2.87.51-3.8 1.85-1.02 1.48-1.86 3.12-2.76 4.68-1.87 3.2-3.66 6.44-5.46 9.68-.91 1.64 1.53 3.06 2.51 1.47"/></svg>